<svg xmlns="http://www.w3.org/2000/svg" shape-rendering="geometricPrecision" text-rendering="geometricPrecision" image-rendering="optimizeQuality" fill-rule="evenodd" clip-rule="evenodd" viewBox="0 0 512 506.49"><path fill-rule="nonzero" d="M294.24 17.11C294.24 7.69 303.53 0 315.1 0s20.87 7.65 20.87 17.11v74.85c0 9.42-9.3 17.11-20.87 17.11s-20.86-7.65-20.86-17.11V17.11zM377.8 434.7l59.67-73.73h-37.04v-44.53H355.2v44.53h-37.05l59.65 73.73zm.02-196.59c36.98 0 70.56 15.04 94.83 39.35C496.96 301.7 512 335.25 512 372.31c0 37.02-15.02 70.61-39.3 94.88l-.68.64c-24.23 23.88-57.5 38.66-94.2 38.66-37 0-70.56-15.04-94.84-39.3-24.3-24.32-39.34-57.89-39.34-94.88 0-37.06 15.04-70.61 39.31-94.88l.69-.64c24.24-23.9 57.53-38.68 94.18-38.68zm78.74 55.41c-20.09-20.11-47.96-32.58-78.74-32.58-30.5 0-58.14 12.25-78.19 32.03l-.55.59c-20.15 20.14-32.62 48-32.62 78.75 0 30.76 12.47 58.65 32.59 78.77 20.12 20.11 48 32.59 78.77 32.59 30.48 0 58.12-12.26 78.21-32.03l.54-.58c20.15-20.15 32.61-48 32.61-78.75s-12.48-58.61-32.62-78.79zM56.81 242.28c-1.18 0-2.24-5.2-2.24-11.56 0-6.39.94-11.54 2.24-11.54h56.94c1.19 0 2.25 5.2 2.25 11.54 0 6.38-.94 11.56-2.25 11.56H56.81zm90.78 0c-1.19 0-2.25-5.2-2.25-11.56 0-6.39.94-11.54 2.25-11.54h56.94c1.18 0 2.24 5.2 2.24 11.54 0 6.38-.94 11.56-2.24 11.56h-56.94zm90.77 0c-1.18 0-2.24-5.2-2.24-11.56 0-6.39.93-11.54 2.24-11.54h56.94c1.18 0 2.24 5.15 2.24 11.49a175.09 175.09 0 0 0-16.44 11.61h-42.74zM56.94 308.52c-1.18 0-2.24-5.2-2.24-11.57 0-6.38.93-11.58 2.24-11.58h56.94c1.18 0 2.24 5.2 2.24 11.58 0 6.37-.93 11.57-2.24 11.57H56.94zm90.77 0c-1.18 0-2.24-5.2-2.24-11.57 0-6.38.93-11.58 2.24-11.58h56.94c1.18 0 2.24 5.2 2.24 11.58 0 6.37-.93 11.57-2.24 11.57h-56.94zM57.06 374.8c-1.18 0-2.24-5.2-2.24-11.58 0-6.37.94-11.57 2.24-11.57H114c1.19 0 2.24 5.2 2.24 11.57 0 6.38-.93 11.58-2.24 11.58H57.06zm90.78 0c-1.19 0-2.25-5.2-2.25-11.58 0-6.37.94-11.57 2.25-11.57h56.94c1.18 0 2.24 5.2 2.24 11.57 0 6.38-.94 11.58-2.24 11.58h-56.94zM106.83 17.11c0-9.42 9.29-17.11 20.86-17.11s20.86 7.65 20.86 17.11v74.85c0 9.42-9.32 17.11-20.86 17.11-11.57 0-20.86-7.65-20.86-17.11V17.11zM22.98 163.64h397.39V77.46c0-2.94-1.18-5.53-3.08-7.43-1.9-1.9-4.61-3.08-7.44-3.08h-38.1c-6.39 0-11.57-5.2-11.57-11.57 0-6.38 5.18-11.58 11.57-11.58h38.1c9.34 0 17.7 3.77 23.82 9.89 6.13 6.13 9.88 14.49 9.88 23.82v136.81c-7.59-2.62-15.41-4.73-23.44-6.29v-21.38h.26H22.98v223.17c0 2.94 1.18 5.52 3.08 7.42 1.9 1.9 4.61 3.09 7.43 3.09h188.86c2.15 8.01 4.86 15.83 8.12 23.35H33.71c-9.3 0-17.7-3.75-23.82-9.89C3.75 427.72 0 419.36 0 410.02V77.55c0-9.29 3.75-17.7 9.89-23.82 6.12-6.13 14.48-9.88 23.82-9.88h40.67c6.38 0 11.58 5.2 11.58 11.56 0 6.39-5.2 11.59-11.58 11.59H33.71c-2.96 0-5.54 1.18-7.44 3.08-1.9 1.9-3.09 4.59-3.09 7.43v86.16h-.2v-.03zm158.94-96.69c-6.37 0-11.57-5.2-11.57-11.57 0-6.38 5.2-11.58 11.57-11.58h77.55c6.39 0 11.59 5.2 11.59 11.58 0 6.37-5.2 11.57-11.59 11.57h-77.55z"/></svg>