<svg xmlns="http://www.w3.org/2000/svg" viewBox="0 0 520.3 346.95"><g transform="translate(-36.286 -274.92)"><path style="stroke-linejoin:bevel;stroke:#000;stroke-linecap:round;stroke-width:1.2330000000000001;fill:#c4c1c1;fill-opacity:1" d="m115.32 520.37-78.414 69.254 238.31-1.56h45.974l233.59-1.871-76.445-65.822-105.11.623h-152.39z"/><rect style="stroke-linejoin:bevel;stroke:#000;stroke-linecap:round;stroke-width:1.2330000000000001;fill:#c4c1c1;fill-opacity:1" rx="30.92" ry="31.34" height="244.85" width="414.52" y="275.54" x="89.768"/><rect style="opacity:.72428000000000003;stroke-linejoin:bevel;stroke:#000;stroke-linecap:round;stroke-width:1.27499999999999991;fill:#7beeff;fill-opacity:1" rx="28.001" ry="28.727" height="224.43" width="375.4" y="286.03" x="108.63"/><rect x="38.093" y="583.157" width="517.873" height="38.091" ry="4.876" rx="38.629" style="fill:#c4c1c1;stroke:#000;stroke-width:1.23302054000000005;stroke-linecap:round;stroke-linejoin:bevel;fill-opacity:1"/><path transform="matrix(.32564 0 0 .29945 276.17 460.08)" d="M717.143 478.076a14.286 14.286 0 1 1-28.572 0 14.286 14.286 0 1 1 28.572 0z" style="fill:#28ea24;fill-opacity:1;stroke-width:1.63250004999999998"/><path style="fill:#28ea24;fill-opacity:1;stroke-width:1.63250004999999998" d="M717.143 478.076a14.286 14.286 0 1 1-28.572 0 14.286 14.286 0 1 1 28.572 0z" transform="matrix(.32564 0 0 .29945 263.406 460.08)"/><path transform="matrix(.32564 0 0 .29945 250.643 460.08)" d="M717.143 478.076a14.286 14.286 0 1 1-28.572 0 14.286 14.286 0 1 1 28.572 0z" style="fill:#0f800c;fill-opacity:1;stroke-width:1.63250004999999998"/><path style="fill:#000;fill-opacity:1;stroke-width:1.63250004999999998" d="M717.143 478.076a14.286 14.286 0 1 1-28.572 0 14.286 14.286 0 1 1 28.572 0z" transform="matrix(.32564 0 0 .29945 237.88 460.08)"/><path transform="matrix(.32564 0 0 .29945 225.117 460.08)" d="M717.143 478.076a14.286 14.286 0 1 1-28.572 0 14.286 14.286 0 1 1 28.572 0z" style="fill:#000;fill-opacity:1;stroke-width:1.63250004999999998"/><path style="stroke:#000;stroke-width:.39867;fill:#fff" d="M358.92 575.37c0 .98-2.138 1.774-4.776 1.774h-105.74c-2.637 0-4.774-.794-4.774-1.774l4.774-10.575c.51-1.119 2.139-1.774 4.776-1.774h94.171c2.637 0 3.703.655 4.774 1.774l6.803 10.575z"/><path style="stroke:#393939;stroke-width:.41326;fill:#fff" d="M164.88 528.04c.128 0 .24.006.337.017.096.01.176.024.237.042a.306.306 0 0 1 .127.059c.022.02.028.043.009.064l-1.72 1.972a.317.317 0 0 1-.121.066 1.728 1.728 0 0 1-.234.058 3.34 3.34 0 0 1-.315.043c-.117.01-.242.016-.372.016l-20.748.004a3.16 3.16 0 0 1-.341-.017 1.406 1.406 0 0 1-.238-.042.3.3 0 0 1-.124-.059c-.021-.021-.021-.044 0-.066l2.01-1.97a.354.354 0 0 1 .13-.066c.064-.02.145-.041.24-.058a3.97 3.97 0 0 1 .69-.06l20.434-.01zM187.04 528.04c.13 0 .245.006.345.017.1.01.181.025.245.042a.41.41 0 0 1 .139.059c.024.021.031.043.016.065l-1.43 1.971c-.016.023-.055.045-.113.067a1.55 1.55 0 0 1-.226.059 3.626 3.626 0 0 1-.686.058l-19.495.003c-.13 0-.245-.006-.342-.016a1.529 1.529 0 0 1-.242-.042.322.322 0 0 1-.129-.06c-.022-.022-.027-.043-.008-.065l1.702-1.972a.304.304 0 0 1 .12-.065c.06-.02.139-.041.231-.058a3.504 3.504 0 0 1 .676-.06h19.216zM209.01 528.04c.131 0 .247.006.348.017.1.01.184.024.251.042a.445.445 0 0 1 .146.058c.03.021.039.044.027.065l-1.144 1.972c-.014.022-.048.045-.104.066a1.331 1.331 0 0 1-.216.06 3.976 3.976 0 0 1-.679.059l-19.492.002c-.131 0-.248-.006-.35-.017a1.613 1.613 0 0 1-.251-.042.4.4 0 0 1-.139-.058c-.027-.023-.034-.044-.018-.067l1.417-1.971c.015-.022.053-.044.11-.065a1.33 1.33 0 0 1 .222-.059 4.045 4.045 0 0 1 .675-.06h19.199zM230.99 528.04c.127 0 .242.006.343.017.101.01.188.025.257.042.068.017.12.038.151.059.033.021.047.043.038.064l-.857 1.973c-.01.022-.042.045-.093.066a1.305 1.305 0 0 1-.206.06 3.196 3.196 0 0 1-.662.058l-19.511.003c-.129 0-.247-.006-.348-.017a1.78 1.78 0 0 1-.258-.042.465.465 0 0 1-.15-.06c-.031-.02-.042-.043-.029-.065l1.13-1.972c.013-.022.05-.044.102-.065.054-.021.13-.041.217-.059a3.217 3.217 0 0 1 .664-.059l19.233-.015zM252.97 528.03c.128 0 .245.006.348.016.102.01.192.025.266.042a.68.68 0 0 1 .165.06c.036.02.053.043.047.064l-.57 1.973c-.005.022-.034.045-.084.066a1.1 1.1 0 0 1-.202.06 3.05 3.05 0 0 1-.295.042 3.85 3.85 0 0 1-.363.016l-19.52.001c-.128 0-.246-.006-.349-.016s-.19-.025-.26-.042a.559.559 0 0 1-.156-.06c-.033-.02-.046-.043-.037-.065l.844-1.973c.01-.022.042-.043.09-.065.052-.02.12-.041.204-.058.085-.018.182-.033.293-.043.11-.01.23-.017.359-.017H253zM274.96 528.03c.131 0 .25.006.356.017.106.01.196.025.272.042.074.017.13.037.17.059.04.021.057.043.055.064l-.282 1.974c-.005.021-.029.044-.075.065a.902.902 0 0 1-.192.06c-.08.017-.177.031-.288.042-.108.01-.232.017-.365.017h-19.527c-.128 0-.246-.005-.35-.015a2.062 2.062 0 0 1-.267-.043.642.642 0 0 1-.166-.06c-.034-.02-.052-.043-.046-.065l.557-1.973c.007-.022.036-.044.082-.065.049-.02.114-.042.197-.059.08-.017.176-.031.285-.042.109-.011.229-.017.357-.017l19.233.005zM296.97 528.03a3.8 3.8 0 0 1 .35.016c.105.01.198.025.274.043a.758.758 0 0 1 .18.058c.041.021.064.044.064.065l.005 1.973c0 .022-.022.045-.064.066s-.104.042-.181.06a2.503 2.503 0 0 1-.279.042c-.107.01-.228.016-.357.016l-19.534.001c-.133 0-.253-.006-.362-.015a2.33 2.33 0 0 1-.276-.043.698.698 0 0 1-.172-.06c-.042-.02-.06-.043-.058-.065l.27-1.973c.001-.021.028-.043.074-.065a.86.86 0 0 1 .187-.058c.08-.018.175-.033.283-.043.108-.01.23-.017.36-.017l19.267-.005zM319 528.02c.128 0 .248.006.354.017.108.01.202.025.281.042.08.018.143.037.188.059.045.021.07.043.075.064l.292 1.974c0 .022-.016.044-.055.066a.694.694 0 0 1-.172.06 2.144 2.144 0 0 1-.274.042 3.56 3.56 0 0 1-.354.016l-19.541.001c-.13 0-.25-.006-.359-.015a2.471 2.471 0 0 1-.283-.043.828.828 0 0 1-.185-.06c-.043-.02-.067-.043-.068-.066l-.019-1.972c0-.023.023-.044.065-.065a.847.847 0 0 1 .181-.06 3.394 3.394 0 0 1 .63-.06h19.269zM339.67 528.02c.129 0 .249.006.357.016.108.01.205.025.286.043a.97.97 0 0 1 .196.058c.049.022.076.044.083.065l.565 1.975c.01.021-.011.044-.046.065a.63.63 0 0 1-.166.06 2.051 2.051 0 0 1-.267.042c-.104.01-.221.016-.353.016l-18.204.001c-.13 0-.25-.006-.362-.016a2.598 2.598 0 0 1-.282-.042.93.93 0 0 1-.192-.06c-.047-.02-.071-.044-.076-.066l-.305-1.973c0-.021.014-.043.053-.064a.631.631 0 0 1 .168-.06c.074-.018.166-.032.27-.043.104-.01.222-.016.348-.016l17.954.005zM362.01 528.02c.129 0 .249.006.36.016.11.01.21.026.292.043.086.018.155.038.205.058.051.022.084.044.092.066l.856 1.974c.01.022 0 .045-.038.066a.542.542 0 0 1-.154.058 1.91 1.91 0 0 1-.263.044c-.101.01-.22.016-.35.016l-19.557.004c-.131 0-.255-.006-.367-.017a2.665 2.665 0 0 1-.295-.043 1.047 1.047 0 0 1-.2-.059c-.05-.021-.08-.044-.086-.066l-.58-1.973c-.01-.022.01-.044.046-.065a.627.627 0 0 1 .16-.06c.074-.017.163-.031.266-.042.104-.01.224-.017.352-.017l19.181-.015zM383.81 528.01c.129 0 .251.007.364.017.113.01.215.025.304.042.089.018.162.038.217.06.054.02.09.043.101.064l1.142 1.975c.014.021 0 .044-.028.065a.463.463 0 0 1-.15.06c-.069.017-.156.032-.258.043-.103.01-.221.015-.35.015l-19.28.003c-.132 0-.254-.006-.367-.016s-.214-.025-.302-.043a1.034 1.034 0 0 1-.21-.059c-.053-.021-.087-.043-.096-.066l-.869-1.974c-.01-.021.01-.044.037-.065a.532.532 0 0 1 .157-.058c.069-.017.156-.033.258-.043.102-.01.219-.016.346-.016h19.005zM405.88 528.01c.13 0 .256.006.371.016.115.01.22.026.31.043.09.017.165.038.223.058.058.022.094.044.111.066l1.431 1.975c.017.022.01.045-.018.066a.413.413 0 0 1-.141.06c-.064.016-.15.031-.25.042-.102.01-.22.016-.354.016l-19.465.001a4.01 4.01 0 0 1-.676-.059 1.255 1.255 0 0 1-.219-.059c-.057-.022-.092-.044-.106-.066l-1.157-1.974c-.011-.022 0-.044.028-.065a.502.502 0 0 1 .148-.06c.069-.017.155-.031.254-.042.1-.01.216-.017.346-.017h19.093zM427.25 528.01a3.949 3.949 0 0 1 .68.06c.09.017.168.037.228.058a.33.33 0 0 1 .123.065l1.71 1.975c.019.022.014.045-.01.066a.33.33 0 0 1-.131.06 1.57 1.57 0 0 1-.24.042c-.098.01-.213.017-.345.017l-18.755.001c-.131 0-.256-.007-.371-.017a3.08 3.08 0 0 1-.311-.042 1.474 1.474 0 0 1-.225-.059.287.287 0 0 1-.113-.066l-1.444-1.976c-.016-.02-.012-.043.017-.064a.365.365 0 0 1 .135-.059c.062-.017.145-.032.244-.043.097-.01.21-.016.339-.016l18.305-.005zM449.85 528.01a3.663 3.663 0 0 1 .69.059c.094.017.177.038.24.059a.358.358 0 0 1 .127.065l2.008 1.976c.023.021.023.044 0 .065-.02.022-.062.043-.122.06s-.14.032-.238.042c-.096.01-.209.017-.341.017H432.36a4.46 4.46 0 0 1-.371-.015 3.529 3.529 0 0 1-.318-.042 1.771 1.771 0 0 1-.233-.06.307.307 0 0 1-.124-.066l-1.729-1.975c-.018-.022-.016-.044.01-.065a.346.346 0 0 1 .128-.06c.06-.017.14-.031.237-.042.097-.01.21-.016.337-.016h19.618zM159.15 530.86c.132 0 .249.006.348.017.099.01.182.025.244.042a.334.334 0 0 1 .129.06c.022.022.025.044.007.066l-3.827 4.284a.347.347 0 0 1-.13.07 1.72 1.72 0 0 1-.244.063 3.686 3.686 0 0 1-.72.063l-18.087.001c-.133 0-.252-.006-.352-.017a1.441 1.441 0 0 1-.245-.046.289.289 0 0 1-.126-.062c-.022-.024-.02-.048 0-.071l4.364-4.283a.377.377 0 0 1 .134-.066c.066-.022.15-.042.246-.06a4.252 4.252 0 0 1 .702-.06h17.552zM181.56 530.86c.129 0 .245.006.346.016.099.01.182.026.246.043a.376.376 0 0 1 .138.06c.026.021.03.044.014.066l-3.203 4.285c-.017.023-.058.047-.119.07-.06.023-.14.045-.234.063a4.068 4.068 0 0 1-.703.063l-19.42.001a3.51 3.51 0 0 1-.354-.017 1.54 1.54 0 0 1-.247-.046.32.32 0 0 1-.13-.063c-.024-.023-.026-.047-.008-.07l3.777-4.284a.31.31 0 0 1 .123-.067 1.59 1.59 0 0 1 .236-.059 4.156 4.156 0 0 1 .688-.06l18.855-.005zM203.48 530.86c.129 0 .247.007.347.017.1.01.185.025.253.043a.433.433 0 0 1 .146.06c.03.02.038.044.025.066l-2.593 4.285c-.015.024-.053.047-.11.07a1.449 1.449 0 0 1-.226.064 3.246 3.246 0 0 1-.314.045 4.072 4.072 0 0 1-.38.018H181.21c-.138.001-.258-.005-.362-.016a1.562 1.562 0 0 1-.258-.046.372.372 0 0 1-.14-.063c-.028-.023-.033-.047-.018-.07l3.167-4.285c.017-.022.056-.045.116-.067.058-.022.135-.042.226-.06.092-.017.199-.032.314-.043.117-.01.244-.015.375-.015h18.83zM225.42 530.86c.13 0 .249.006.35.017.102.01.19.025.26.042s.123.038.155.06.044.044.034.066l-1.982 4.287c-.012.023-.047.047-.1.07a1.196 1.196 0 0 1-.216.063 2.93 2.93 0 0 1-.31.046 4.12 4.12 0 0 1-.377.017l-19.427.001c-.136 0-.258-.007-.364-.017a1.76 1.76 0 0 1-.263-.046.466.466 0 0 1-.15-.063c-.03-.023-.04-.047-.025-.07l2.556-4.286c.014-.022.049-.045.104-.066.054-.022.13-.042.22-.06.09-.018.193-.033.308-.043.114-.01.24-.016.373-.016l18.839-.005zM247.37 530.85c.13 0 .249.006.352.017.105.01.194.025.266.042a.656.656 0 0 1 .165.06c.034.021.05.044.044.067l-1.372 4.287c-.007.023-.039.047-.09.07-.05.022-.12.044-.207.063-.087.018-.19.035-.303.045a3.921 3.921 0 0 1-.375.019h-19.433c-.133 0-.256-.007-.362-.017a1.985 1.985 0 0 1-.272-.046.57.57 0 0 1-.162-.064c-.035-.022-.048-.046-.036-.07l1.945-4.286c.012-.022.044-.044.096-.067a1.25 1.25 0 0 1 .214-.059c.087-.018.189-.032.302-.043.113-.01.236-.017.368-.017l18.856-.005zM269.33 530.85c.131 0 .254.006.36.016.108.01.2.026.275.044a.709.709 0 0 1 .173.059c.037.021.056.045.054.067l-.76 4.287c-.003.023-.03.048-.08.07a1 1 0 0 1-.2.064c-.083.019-.185.034-.299.045-.114.011-.24.018-.379.018h-19.44c-.134.001-.257-.005-.364-.017a2.154 2.154 0 0 1-.274-.045.665.665 0 0 1-.168-.063c-.035-.023-.051-.047-.044-.07l1.334-4.288c.008-.022.037-.045.085-.066.05-.022.119-.042.2-.06.084-.018.183-.032.293-.043.11-.01.233-.016.365-.016h18.874zM291.29 530.85c.132 0 .254.006.363.016.108.01.204.025.28.043.08.017.14.038.183.06.041.021.063.044.062.066l-.145 4.289c-.003.023-.026.047-.07.07a.877.877 0 0 1-.191.063 2.58 2.58 0 0 1-.294.046c-.112.011-.238.018-.376.018h-19.45c-.134 0-.257-.006-.365-.017a2.103 2.103 0 0 1-.28-.046.712.712 0 0 1-.178-.063c-.039-.023-.057-.047-.055-.07l.723-4.288c.003-.022.03-.045.076-.066a.995.995 0 0 1 .192-.06c.081-.018.178-.032.288-.043.108-.01.23-.016.36-.016l18.891.005zM313.31 530.85c.13 0 .251.006.36.017.108.01.204.025.285.042a.916.916 0 0 1 .188.06c.045.021.07.044.073.067l.466 4.289c0 .023-.019.047-.06.07a.74.74 0 0 1-.18.064 2.215 2.215 0 0 1-.283.045c-.11.012-.233.018-.368.018l-19.468.001c-.133 0-.259-.007-.369-.018a2.193 2.193 0 0 1-.285-.045.822.822 0 0 1-.188-.063c-.044-.023-.065-.048-.064-.07l.11-4.29c0-.021.023-.044.066-.066a.83.83 0 0 1 .183-.06c.08-.017.173-.032.281-.043s.229-.017.36-.017l18.935.01zM335.29 530.84c.129 0 .25.006.362.016.11.01.206.026.29.044.083.017.15.038.198.059.047.022.077.045.082.067l1.078 4.29c.009.024-.01.047-.049.07a.633.633 0 0 1-.17.063 2.15 2.15 0 0 1-.278.046 3.577 3.577 0 0 1-.365.018h-19.474c-.135 0-.26-.005-.373-.017a2.458 2.458 0 0 1-.293-.045.969.969 0 0 1-.196-.064c-.047-.023-.072-.047-.074-.07l-.504-4.29c0-.022.018-.045.057-.066a.725.725 0 0 1 .176-.06c.076-.017.169-.032.275-.043.106-.01.226-.016.355-.016h18.918zM357.28 530.84c.129 0 .254.006.364.016.112.01.212.025.298.043.086.018.154.038.205.06.05.021.083.044.092.067l1.694 4.29c.01.024-.01.048-.041.07a.524.524 0 0 1-.162.064 1.969 1.969 0 0 1-.273.046 3.64 3.64 0 0 1-.361.017h-19.471c-.139 0-.266-.006-.381-.016a2.753 2.753 0 0 1-.305-.046 1.064 1.064 0 0 1-.205-.064c-.048-.022-.078-.046-.085-.07l-1.116-4.29c0-.022.012-.045.05-.067a.596.596 0 0 1 .166-.06 2.15 2.15 0 0 1 .271-.042c.106-.01.228-.016.36-.016l18.83-.005zM379.26 530.84c.129 0 .253.006.369.017.113.01.216.025.306.042.091.018.165.039.22.06.053.022.09.044.1.067l2.309 4.292c.014.023 0 .047-.03.07a.536.536 0 0 1-.158.064c-.07.018-.164.033-.27.045s-.226.018-.361.018h-19.478c-.137 0-.264-.007-.381-.017a2.681 2.681 0 0 1-.31-.046 1.11 1.11 0 0 1-.217-.063c-.054-.022-.087-.047-.099-.07l-1.729-4.292c-.01-.022 0-.044.04-.066a.566.566 0 0 1 .162-.06c.073-.018.164-.032.267-.043.104-.01.224-.017.352-.017l19.005-.005zM401.24 530.84c.131 0 .258.006.376.017.115.01.221.025.31.043.093.017.169.038.224.059.058.022.097.045.111.067l2.923 4.293c.016.023.01.047-.018.07a.44.44 0 0 1-.146.063c-.07.019-.157.035-.26.046a3.52 3.52 0 0 1-.364.018h-19.491c-.134 0-.261-.006-.379-.017a2.822 2.822 0 0 1-.313-.046 1.246 1.246 0 0 1-.224-.063c-.055-.023-.092-.047-.104-.07l-2.347-4.292c-.011-.023 0-.045.03-.067a.443.443 0 0 1 .15-.06c.07-.017.155-.032.256-.043.1-.01.22-.016.35-.016h19.006zM423.23 530.83c.133 0 .261.006.378.016.118.01.226.025.32.043.093.018.173.038.234.06.06.021.1.044.12.067l3.538 4.293c.018.023.017.047-.01.07a.35.35 0 0 1-.137.064c-.065.019-.15.034-.254.045-.104.011-.224.018-.362.018l-19.498.001c-.133 0-.263-.007-.383-.017a3.358 3.358 0 0 1-.32-.046 1.595 1.595 0 0 1-.23-.063c-.061-.023-.1-.048-.116-.07l-2.96-4.294c-.017-.022-.01-.045.018-.067a.414.414 0 0 1 .142-.06c.064-.017.15-.032.25-.042.1-.01.216-.016.347-.016l19.005-.01zM452.74 530.83a4.159 4.159 0 0 1 .7.06 1.7 1.7 0 0 1 .242.059c.064.021.11.044.134.067l4.364 4.294c.022.023.022.047 0 .07-.019.023-.062.045-.123.064a1.433 1.433 0 0 1-.243.046 3.204 3.204 0 0 1-.353.017l-27.108.001c-.137 0-.268-.007-.39-.017a3.167 3.167 0 0 1-.33-.046c-.096-.02-.18-.04-.241-.063a.323.323 0 0 1-.127-.071l-3.576-4.294c-.019-.021-.017-.044.01-.066a.34.34 0 0 1 .133-.06 1.61 1.61 0 0 1 .247-.043c.1-.01.219-.016.35-.016l26.187.015zM165.13 536.13c.134 0 .252.007.353.018.102.01.186.028.25.047.065.02.11.042.135.066.022.023.028.048.007.072l-3.785 4.582a.323.323 0 0 1-.131.075c-.065.026-.151.05-.25.07-.102.02-.215.039-.342.051-.124.012-.259.02-.397.02h-29.781c-.139 0-.261-.007-.362-.02a1.317 1.317 0 0 1-.251-.05.28.28 0 0 1-.126-.07c-.02-.024-.02-.05.007-.076l4.669-4.58a.377.377 0 0 1 .14-.072c.07-.024.157-.046.259-.066a4.33 4.33 0 0 1 .73-.066h28.858zM188.18 536.12c.136 0 .256.008.358.019.103.01.19.028.257.047.067.02.115.042.143.065.028.024.035.048.018.073l-3.12 4.582a.286.286 0 0 1-.123.077 1.5 1.5 0 0 1-.24.069c-.097.02-.21.038-.334.051-.122.012-.255.02-.394.02h-20.109c-.138 0-.262-.007-.367-.02a1.384 1.384 0 0 1-.255-.051.343.343 0 0 1-.139-.07c-.023-.024-.027-.05-.007-.075l3.737-4.582a.295.295 0 0 1 .126-.072c.063-.024.144-.046.241-.066a3.996 3.996 0 0 1 .711-.066h19.497zM210.86 536.12c.134 0 .256.007.36.019.105.01.193.028.264.047.07.02.123.042.153.066.03.023.041.048.029.072l-2.47 4.583c-.012.025-.052.052-.109.077a1.382 1.382 0 0 1-.233.069c-.092.02-.202.038-.325.05-.12.013-.253.02-.391.02h-20.106c-.142 0-.268-.007-.376-.02a1.6 1.6 0 0 1-.267-.05.4.4 0 0 1-.148-.069c-.028-.025-.035-.052-.018-.076l3.084-4.583c.017-.024.056-.05.116-.072.06-.024.139-.046.233-.066a3.907 3.907 0 0 1 .712-.066h19.505zM233.56 536.12c.136 0 .257.007.364.018.106.012.197.028.27.048.075.02.128.041.163.066.034.023.048.048.038.071l-1.813 4.585c-.01.026-.046.052-.1.076a1.2 1.2 0 0 1-.22.07 3.696 3.696 0 0 1-.709.07h-20.115c-.142 0-.27-.007-.378-.019a1.668 1.668 0 0 1-.273-.05.47.47 0 0 1-.16-.07c-.032-.025-.041-.052-.028-.076l2.43-4.584c.011-.024.05-.049.103-.072.058-.024.134-.046.225-.066s.2-.035.318-.048c.117-.01.248-.018.384-.018l19.487-.01zM256.26 536.12c.136 0 .257.007.366.018.109.011.2.028.277.047.076.02.133.042.172.066.037.023.055.048.049.071l-1.174 4.588c-.006.025-.038.051-.089.076a1.05 1.05 0 0 1-.211.07c-.089.02-.195.038-.311.05a3.93 3.93 0 0 1-.387.02h-20.123c-.14 0-.267-.007-.377-.02a1.844 1.844 0 0 1-.282-.05.575.575 0 0 1-.17-.07c-.038-.024-.052-.05-.042-.075l1.774-4.586c.01-.023.044-.048.097-.072.054-.024.128-.045.218-.066a3 3 0 0 1 .31-.047c.117-.01.244-.018.38-.018h19.505zM278.97 536.12c.138 0 .263.007.376.018.111.012.207.028.285.047a.7.7 0 0 1 .182.066c.043.023.063.048.06.072l-.505 4.587c-.003.025-.03.051-.078.076a.927.927 0 0 1-.203.07 2.58 2.58 0 0 1-.308.05c-.117.012-.249.02-.39.02h-20.132c-.139 0-.266-.008-.378-.02a1.989 1.989 0 0 1-.286-.05.632.632 0 0 1-.176-.07c-.04-.024-.057-.05-.052-.075l1.123-4.587c.005-.023.034-.048.084-.072s.119-.046.204-.065c.085-.02.186-.035.302-.048.113-.01.239-.017.373-.017h19.513zM301.66 536.12c.138 0 .265.008.378.019.113.01.212.027.294.047.082.02.147.042.192.065.045.024.069.048.07.072l.15 4.589c0 .024-.023.05-.067.076a.86.86 0 0 1-.194.069c-.083.02-.184.039-.3.05-.117.013-.246.02-.388.02h-20.14c-.14 0-.266-.007-.38-.018a2.108 2.108 0 0 1-.294-.052.744.744 0 0 1-.187-.07c-.043-.024-.065-.05-.062-.075l.467-4.587c.003-.024.028-.05.074-.072s.113-.046.196-.066.182-.036.295-.047c.112-.012.237-.018.372-.018h19.496zM324.43 536.11c.134 0 .261.007.374.019.113.01.212.028.298.047.083.02.152.042.2.066.047.023.077.048.08.071l.806 4.59c0 .024-.017.05-.057.075a.652.652 0 0 1-.182.07c-.08.02-.178.038-.289.05-.113.013-.239.02-.38.02h-20.16c-.14 0-.27-.007-.384-.02a2.168 2.168 0 0 1-.3-.05.876.876 0 0 1-.199-.07c-.046-.025-.071-.051-.071-.075l-.19-4.589c0-.024.02-.048.065-.072a.784.784 0 0 1 .186-.065c.08-.02.176-.036.286-.047.11-.013.236-.02.372-.02h19.53zM347.2 536.11c.133 0 .261.007.376.018.115.011.217.029.304.048.088.02.16.042.21.065.05.023.083.048.09.072l1.462 4.59c.01.025-.01.05-.044.076a.646.646 0 0 1-.173.07c-.076.02-.172.037-.283.05-.11.012-.238.02-.376.02h-20.16c-.14 0-.272-.008-.392-.02a2.452 2.452 0 0 1-.31-.05.959.959 0 0 1-.207-.07c-.05-.025-.079-.051-.083-.076l-.845-4.589c0-.024.015-.049.054-.072a.68.68 0 0 1 .178-.065c.078-.02.172-.036.283-.048.11-.011.235-.018.374-.018h19.53zM369.89 536.11c.134 0 .263.007.378.018.119.012.225.029.314.048.09.02.164.041.219.065.053.024.09.048.099.073l2.118 4.59c.012.025 0 .05-.032.076a.54.54 0 0 1-.164.07c-.074.02-.165.038-.276.05-.108.012-.233.02-.373.02h-20.166c-.141 0-.275-.008-.395-.02a2.847 2.847 0 0 1-.32-.05 1.073 1.073 0 0 1-.216-.07c-.056-.025-.089-.05-.095-.076l-1.49-4.58c-.01-.024.009-.049.044-.072a.55.55 0 0 1 .168-.065 1.95 1.95 0 0 1 .276-.049c.108-.01.234-.017.371-.017l19.531.005zM392.66 536.11c.136 0 .265.007.385.018.118.012.228.028.32.047.095.02.173.042.233.066.058.024.096.049.113.072l2.776 4.592c.016.024.009.051-.025.076a.447.447 0 0 1-.157.07c-.072.02-.164.037-.272.05-.109.012-.234.02-.371.02h-20.175c-.141 0-.273-.007-.395-.02a2.833 2.833 0 0 1-.326-.05 1.293 1.293 0 0 1-.232-.07c-.057-.025-.094-.052-.105-.076l-2.158-4.591c-.012-.023 0-.048.035-.072a.547.547 0 0 1 .16-.065c.074-.02.166-.035.273-.048a3.5 3.5 0 0 1 .364-.018h19.618zM415.43 536.11c.138 0 .27.007.391.018.123.011.233.028.33.048.094.02.178.041.238.065a.304.304 0 0 1 .122.072l3.435 4.593c.018.025.014.051-.014.075a.348.348 0 0 1-.143.07c-.07.021-.157.038-.265.051-.106.012-.233.02-.376.02h-20.182a3.908 3.908 0 0 1-.726-.071 1.528 1.528 0 0 1-.238-.07c-.06-.024-.099-.051-.114-.075l-2.815-4.592c-.017-.023-.01-.048.023-.072a.439.439 0 0 1 .147-.066c.069-.019.157-.036.26-.047a3.45 3.45 0 0 1 .36-.018h19.53zM438.2 536.11c.136 0 .268.008.387.019.123.01.236.028.335.047.096.02.182.042.246.066a.34.34 0 0 1 .131.071l4.094 4.594c.02.025.02.051 0 .076a.326.326 0 0 1-.133.07c-.065.02-.151.039-.254.05a3.08 3.08 0 0 1-.367.02h-20.2a4.08 4.08 0 0 1-.399-.019 3.223 3.223 0 0 1-.339-.05c-.1-.021-.182-.045-.246-.07a.292.292 0 0 1-.127-.076l-3.474-4.593c-.019-.024-.014-.048.014-.072a.353.353 0 0 1 .138-.065 1.54 1.54 0 0 1 .253-.048c.104-.011.224-.019.36-.019h19.705zM458.08 536.11c.136 0 .268.007.392.018.122.01.238.028.34.047.098.02.186.042.255.066a.44.44 0 0 1 .14.072l4.666 4.594c.025.025.028.052.009.076-.019.026-.06.05-.122.07-.065.02-.148.038-.25.051-.103.012-.223.02-.363.02h-16.86a4.162 4.162 0 0 1-.747-.07c-.1-.021-.19-.046-.256-.07a.356.356 0 0 1-.138-.076l-4.142-4.594c-.02-.024-.018-.049 0-.072a.327.327 0 0 1 .131-.065c.062-.02.146-.036.246-.048.102-.012.22-.019.356-.019h16.465zM166.29 541.68c.14 0 .264.007.37.018.103.012.19.03.259.05.067.02.114.043.14.068.025.024.029.05.01.076l-3.89 4.919a.334.334 0 0 1-.133.078c-.067.027-.156.05-.258.073a3.48 3.48 0 0 1-.353.054c-.129.013-.267.02-.41.02h-36.821a3.17 3.17 0 0 1-.375-.021 1.337 1.337 0 0 1-.258-.054.299.299 0 0 1-.13-.073c-.021-.025-.02-.052.007-.078l5.01-4.917a.436.436 0 0 1 .151-.076c.071-.025.162-.048.268-.069a4.225 4.225 0 0 1 .755-.068h35.655zM189.99 541.68c.14 0 .264.007.371.019.105.011.197.03.267.05.07.02.12.043.15.068.03.024.037.05.021.076l-3.183 4.92c-.017.025-.059.052-.123.078a1.435 1.435 0 0 1-.248.073 3.982 3.982 0 0 1-.753.074h-20.824c-.146 0-.275-.008-.384-.021-.11-.013-.2-.032-.272-.054a.354.354 0 0 1-.143-.073c-.026-.026-.032-.053-.012-.078l3.841-4.919a.308.308 0 0 1 .129-.076 1.63 1.63 0 0 1 .25-.068c.1-.02.215-.037.34-.05.126-.011.261-.019.403-.019h20.17zM213.47 541.68c.138 0 .265.007.375.019s.204.029.277.05c.074.019.13.042.164.067.036.025.047.052.032.076l-2.48 4.921c-.014.026-.053.053-.113.079a1.4 1.4 0 0 1-.242.073c-.099.021-.212.04-.339.053a3.98 3.98 0 0 1-.408.021h-20.833c-.144 0-.273-.008-.383-.021a1.73 1.73 0 0 1-.279-.053.441.441 0 0 1-.157-.074c-.032-.026-.04-.052-.022-.078l3.14-4.92c.015-.025.057-.052.12-.076s.145-.048.241-.068c.098-.02.21-.038.335-.05a4.21 4.21 0 0 1 .396-.019h20.179zM236.96 541.68c.14 0 .27.008.382.018.112.012.207.03.285.05.076.02.134.044.17.069.036.024.052.05.042.076l-1.78 4.921c-.01.027-.043.053-.1.079a1.12 1.12 0 0 1-.228.073 2.51 2.51 0 0 1-.332.054 3.912 3.912 0 0 1-.41.02h-20.841c-.144 0-.275-.008-.388-.02a1.771 1.771 0 0 1-.285-.054.547.547 0 0 1-.168-.074c-.034-.026-.048-.052-.034-.078l2.438-4.92c.014-.027.052-.053.11-.077.058-.025.137-.049.231-.068a2.96 2.96 0 0 1 .328-.05c.123-.011.256-.018.394-.018l20.188-.005zM260.46 541.68c.14 0 .272.007.384.018.113.012.212.03.292.05.08.02.142.043.181.068.04.026.058.051.054.077l-1.077 4.922c-.006.026-.036.053-.09.08a1.12 1.12 0 0 1-.218.072c-.09.022-.201.04-.324.054-.124.012-.26.02-.408.02h-20.851a3.53 3.53 0 0 1-.388-.02 1.792 1.792 0 0 1-.29-.054.578.578 0 0 1-.175-.074c-.039-.025-.053-.052-.045-.078l1.737-4.922c.01-.026.045-.052.097-.076a1.16 1.16 0 0 1 .22-.069 3.06 3.06 0 0 1 .315-.05c.12-.011.25-.018.39-.018h20.196zM283.97 541.68c.143 0 .273.007.388.019.116.012.215.03.299.05.083.02.148.044.191.068.044.025.067.05.064.077l-.374 4.924c-.001.025-.028.052-.077.078a.912.912 0 0 1-.209.073c-.09.022-.195.04-.316.054-.12.013-.258.02-.404.02h-20.859c-.145 0-.276-.008-.391-.02a2.082 2.082 0 0 1-.299-.054.715.715 0 0 1-.186-.073c-.042-.027-.06-.054-.055-.079l1.035-4.923c.007-.026.035-.052.086-.077.051-.024.123-.048.21-.068.088-.02.192-.037.31-.05.117-.011.247-.018.387-.018h20.214zM307.53 541.68c.138 0 .268.007.384.019.116.012.217.03.303.05.085.02.152.042.2.068.047.025.073.05.074.076l.33 4.925c0 .026-.021.053-.067.079a.785.785 0 0 1-.197.073c-.085.022-.189.04-.306.053a3.45 3.45 0 0 1-.394.022l-20.87-.001a3.8 3.8 0 0 1-.4-.02 2.266 2.266 0 0 1-.31-.054.792.792 0 0 1-.198-.073c-.045-.026-.07-.053-.067-.079l.332-4.924c.003-.026.027-.052.076-.076a.903.903 0 0 1 .2-.069c.086-.02.19-.037.308-.05.117-.011.248-.018.389-.018h20.196zM331 541.68c.14 0 .27.008.389.02.118.01.221.028.31.048.088.02.16.044.21.069.05.025.08.051.084.076l1.036 4.927c.01.025-.016.052-.055.078a.726.726 0 0 1-.186.074c-.084.022-.182.04-.3.053a3.456 3.456 0 0 1-.392.021h-20.878c-.148 0-.284-.009-.404-.022a2.458 2.458 0 0 1-.318-.053.915.915 0 0 1-.207-.074c-.049-.026-.076-.053-.078-.078l-.372-4.926c0-.025.02-.05.064-.075a.73.73 0 0 1 .192-.07c.083-.02.183-.037.3-.049a3.87 3.87 0 0 1 .387-.018h20.23zM354.56 541.68c.14 0 .272.007.391.019.12.012.23.03.32.05.092.02.168.042.224.068.056.025.09.051.097.076l1.74 4.927c.01.026-.009.052-.046.078a.614.614 0 0 1-.18.073c-.08.023-.18.041-.295.055-.116.012-.247.02-.389.02h-20.89c-.145 0-.284-.009-.406-.021a2.508 2.508 0 0 1-.325-.054 1.089 1.089 0 0 1-.22-.074c-.053-.026-.082-.052-.09-.078l-1.074-4.926c-.01-.026.012-.052.053-.077.04-.025.101-.048.183-.068.078-.02.176-.038.29-.05.115-.01.244-.019.387-.019h20.319zM378.12 541.68c.138 0 .272.008.394.02.122.01.233.028.328.048.096.02.175.044.235.069.057.025.097.051.108.076l2.444 4.928c.014.026 0 .053-.035.08a.563.563 0 0 1-.168.072c-.079.022-.175.04-.288.054-.113.013-.243.02-.387.02h-20.898c-.143 0-.279-.007-.404-.02a2.689 2.689 0 0 1-.33-.055 1.18 1.18 0 0 1-.226-.073c-.057-.026-.091-.053-.1-.079l-1.78-4.926c-.01-.026.009-.052.042-.076a.554.554 0 0 1 .17-.069c.076-.02.17-.037.28-.05.112-.011.238-.018.38-.018h20.318zM401.68 541.68c.138 0 .272.007.394.018.125.012.236.03.332.05.096.02.18.044.24.069.061.024.1.05.117.076l3.152 4.93c.016.024.01.052-.02.078a.448.448 0 0 1-.157.072c-.072.023-.165.041-.275.054-.11.013-.239.021-.383.021h-20.917a4.05 4.05 0 0 1-.408-.021 3.05 3.05 0 0 1-.34-.054 1.469 1.469 0 0 1-.237-.073c-.06-.026-.098-.053-.113-.079l-2.484-4.928c-.014-.025 0-.052.032-.076a.474.474 0 0 1 .16-.07c.073-.019.165-.036.275-.049.109-.011.236-.018.376-.018h20.232zM425.24 541.68c.14 0 .274.008.399.02.125.011.24.028.34.049.097.02.183.043.248.068.064.026.11.052.129.077l3.856 4.93c.02.026.016.053-.01.079a.394.394 0 0 1-.145.073c-.07.022-.16.04-.268.053a3.181 3.181 0 0 1-.38.022l-20.927-.001a3.99 3.99 0 0 1-.757-.074 1.552 1.552 0 0 1-.249-.074c-.062-.026-.106-.053-.122-.078l-3.194-4.93c-.016-.025-.01-.051.02-.076a.44.44 0 0 1 .153-.069c.069-.02.16-.036.268-.05.106-.01.233-.017.37-.017l20.232.005zM463.69 541.68c.141 0 .277.008.406.02.127.01.246.028.35.049.104.02.194.043.265.069.072.025.123.05.148.075l5.012 4.933c.025.025.027.052.009.078-.02.027-.062.052-.127.074s-.153.04-.256.053a3.096 3.096 0 0 1-.378.021h-35.931c-.146 0-.287-.009-.415-.021a3.378 3.378 0 0 1-.353-.054 1.843 1.843 0 0 1-.261-.073.341.341 0 0 1-.134-.079l-3.91-4.93c-.02-.026-.016-.052.01-.077a.359.359 0 0 1 .14-.068c.07-.02.159-.037.264-.05.106-.011.228-.02.37-.02h34.77zM173.62 547.56c.145 0 .272.008.382.021.11.013.2.032.271.054a.38.38 0 0 1 .148.076c.026.027.031.055.012.083l-3.806 5.282c-.02.028-.067.056-.136.084a1.55 1.55 0 0 1-.265.079 3.875 3.875 0 0 1-.787.08l-50.598-.004a3.11 3.11 0 0 1-.387-.023 1.34 1.34 0 0 1-.266-.057.29.29 0 0 1-.132-.079c-.02-.028-.017-.056.012-.084l5.38-5.281a.478.478 0 0 1 .16-.082 1.95 1.95 0 0 1 .28-.075 4.305 4.305 0 0 1 .788-.075h48.95zM197.75 547.56c.144 0 .273.008.384.02.11.014.204.033.278.055a.463.463 0 0 1 .158.075c.031.028.04.055.024.083l-3.059 5.284c-.017.028-.06.057-.124.085-.065.028-.151.054-.254.079a3.142 3.142 0 0 1-.352.057 4.106 4.106 0 0 1-.424.022l-21.598-.001c-.15 0-.286-.008-.399-.022a1.495 1.495 0 0 1-.283-.058.404.404 0 0 1-.154-.078c-.028-.028-.033-.057-.014-.085l3.767-5.283c.02-.028.065-.055.131-.082.066-.028.153-.053.257-.076.101-.022.221-.04.35-.054.13-.013.272-.021.419-.021l20.888-.005zM222.07 547.57c.144 0 .273.008.389.021.113.013.21.032.288.054a.52.52 0 0 1 .173.076c.036.027.05.055.039.082l-2.307 5.286c-.012.027-.052.056-.114.084a1.33 1.33 0 0 1-.245.079c-.102.023-.22.043-.349.057a4.06 4.06 0 0 1-.422.023l-21.607-.003c-.15 0-.283-.01-.4-.023a1.778 1.778 0 0 1-.29-.057.495.495 0 0 1-.168-.078c-.033-.029-.044-.057-.028-.085l3.014-5.285c.017-.027.057-.055.121-.082.064-.027.149-.053.248-.075.102-.022.218-.042.346-.055.128-.013.265-.02.41-.02l20.889-.01zM246.4 547.57c.146 0 .28.008.396.021.118.013.216.033.298.055.08.023.142.049.18.075.04.027.056.055.048.083l-1.55 5.286c-.008.028-.043.057-.1.085a1.113 1.113 0 0 1-.233.078 2.596 2.596 0 0 1-.341.058c-.13.013-.273.022-.424.022l-21.616-.001c-.15 0-.284-.01-.401-.022a1.848 1.848 0 0 1-.296-.058.54.54 0 0 1-.175-.078c-.037-.03-.05-.057-.04-.085l2.262-5.286c.013-.027.05-.055.108-.082.058-.028.137-.053.234-.076.096-.022.208-.04.334-.054.125-.013.261-.021.406-.021h20.906zM270.74 547.57c.146 0 .28.008.4.021s.221.032.304.054a.71.71 0 0 1 .193.076c.043.027.063.055.06.082l-.797 5.288c-.005.027-.035.056-.088.084a1.017 1.017 0 0 1-.223.079 2.482 2.482 0 0 1-.332.057 3.916 3.916 0 0 1-.42.023l-21.627-.001c-.15 0-.285-.01-.404-.023a1.94 1.94 0 0 1-.304-.057.664.664 0 0 1-.187-.079c-.04-.028-.057-.057-.05-.085l1.507-5.286c.007-.027.042-.055.095-.083a1.1 1.1 0 0 1 .223-.075c.094-.022.203-.041.326-.054.124-.013.26-.02.404-.02l20.915-.01zM295.1 547.57c.145 0 .279.008.399.021.118.013.222.033.309.055a.86.86 0 0 1 .201.075c.047.027.072.055.072.083l-.043 5.288c0 .029-.025.057-.074.085a.877.877 0 0 1-.21.078 2.36 2.36 0 0 1-.321.058 3.65 3.65 0 0 1-.412.022h-21.648c-.149 0-.286-.009-.407-.023a2.051 2.051 0 0 1-.312-.058.777.777 0 0 1-.199-.078c-.044-.028-.065-.057-.062-.085l.752-5.287c.003-.027.034-.056.085-.083a.964.964 0 0 1 .211-.075c.092-.022.2-.041.318-.054.123-.013.257-.021.402-.021h20.958zM319.44 547.57c.144 0 .279.008.398.021.123.013.23.032.318.054.09.023.162.049.212.076.051.027.081.055.084.082l.713 5.29c.01.028-.018.057-.06.085a.844.844 0 0 1-.2.079 2.245 2.245 0 0 1-.312.057 3.696 3.696 0 0 1-.41.022h-21.646c-.153 0-.293-.01-.418-.023a2.177 2.177 0 0 1-.323-.058.908.908 0 0 1-.211-.078c-.05-.028-.074-.057-.074-.085l-.003-5.29c0-.026.024-.054.072-.082a.838.838 0 0 1 .202-.075c.088-.022.194-.041.313-.054.121-.013.257-.021.404-.02l20.985.004zM343.88 547.57c.145 0 .281.008.404.021.125.013.235.033.327.055.091.023.168.048.224.075.053.027.087.055.094.083l1.47 5.291c.01.028-.01.057-.05.085a.664.664 0 0 1-.187.079c-.083.023-.187.043-.307.057s-.256.022-.406.022l-21.656-.001c-.15 0-.29-.008-.417-.022a2.67 2.67 0 0 1-.332-.058 1.066 1.066 0 0 1-.224-.078c-.055-.028-.085-.057-.09-.085l-.758-5.29c-.01-.027.018-.056.061-.083a.757.757 0 0 1 .197-.075 2.09 2.09 0 0 1 .307-.054 3.59 3.59 0 0 1 .396-.021l21.02.005zM368.22 547.57c.145 0 .284.008.41.02.126.014.24.033.338.055.096.023.177.05.237.076.06.027.097.055.109.083l2.229 5.292c.012.028 0 .057-.041.085a.557.557 0 0 1-.18.078c-.081.024-.183.044-.3.058-.12.013-.256.023-.407.023l-21.664-.001c-.15-.001-.29-.01-.42-.023a2.598 2.598 0 0 1-.34-.058c-.099-.023-.178-.05-.235-.079s-.095-.056-.102-.084l-1.517-5.292c-.009-.027.012-.055.052-.083a.675.675 0 0 1 .185-.075c.082-.022.184-.041.3-.054.116-.013.248-.021.393-.021H368.2zM392.66 547.57c.147 0 .287.008.418.021.127.013.243.032.343.055.102.023.185.048.247.075.061.027.103.055.12.082l2.985 5.294c.016.028.009.057-.027.085a.465.465 0 0 1-.166.079 1.689 1.689 0 0 1-.29.057 3.324 3.324 0 0 1-.406.023l-21.677-.001a3.726 3.726 0 0 1-.767-.08 1.319 1.319 0 0 1-.242-.079c-.06-.027-.1-.057-.111-.085l-2.273-5.292c-.014-.027 0-.056.035-.083a.54.54 0 0 1 .17-.075c.079-.022.175-.041.288-.054.113-.014.242-.021.387-.021l21.02-.01zM417.01 547.57c.145 0 .286.008.415.02.129.014.247.033.35.055.102.023.19.05.256.075.065.028.11.056.129.083l3.746 5.295c.018.029.014.057-.014.085a.41.41 0 0 1-.155.078 1.49 1.49 0 0 1-.281.058 3.234 3.234 0 0 1-.396.022h-21.696c-.15 0-.294-.009-.424-.023a3.19 3.19 0 0 1-.356-.058 1.469 1.469 0 0 1-.253-.078c-.065-.028-.108-.057-.125-.085l-3.031-5.294c-.016-.027-.01-.055.025-.083a.461.461 0 0 1 .16-.075c.073-.022.167-.041.28-.054.111-.014.24-.022.385-.022l21.107.005zM469.64 547.57c.145 0 .288.008.42.02.134.014.258.033.368.056.109.022.203.048.28.075a.47.47 0 0 1 .156.082l5.38 5.298c.029.028.033.057.013.086-.018.028-.062.054-.129.078a1.318 1.318 0 0 1-.263.057c-.11.014-.239.023-.39.023l-50.865-.005c-.15 0-.295-.009-.43-.023a3.217 3.217 0 0 1-.36-.056 1.786 1.786 0 0 1-.266-.08.325.325 0 0 1-.136-.085l-3.79-5.294c-.017-.028-.014-.056.015-.083a.36.36 0 0 1 .147-.075c.072-.023.162-.041.272-.055.109-.013.238-.02.384-.02l49.221.01zM452.04 554.27c.152 0 .302.009.44.023s.268.034.379.059c.113.023.207.05.281.079a.421.421 0 0 1 .152.086l2.27 2.586c.028.03.028.061.01.092a.309.309 0 0 1-.144.084 1.373 1.373 0 0 1-.279.061 3.33 3.33 0 0 1-.405.023l-20.923-.004c-.153 0-.302-.009-.438-.023a3.336 3.336 0 0 1-.376-.061 1.692 1.692 0 0 1-.276-.084.35.35 0 0 1-.145-.092l-1.942-2.585c-.02-.029-.015-.058.013-.086s.078-.056.15-.08c.07-.024.165-.045.278-.058.113-.015.247-.023.397-.023l20.582-.005zM138.33 554.02c.154 0 .286.008.4.021.112.014.204.034.273.057.069.024.115.05.14.079.023.029.021.059 0 .088l-6.001 6.716a.443.443 0 0 1-.162.095c-.078.03-.18.06-.296.085-.117.025-.25.046-.394.061a4.506 4.506 0 0 1-.455.023l-21.018-.004c-.154 0-.29-.009-.406-.024a1.312 1.312 0 0 1-.274-.06c-.068-.026-.115-.055-.134-.086-.02-.03-.015-.063.018-.095l6.842-6.714a.5.5 0 0 1 .165-.089c.08-.028.18-.055.294-.078.114-.024.245-.044.383-.057a4.62 4.62 0 0 1 .435-.021h20.179zM164.1 554.02c.15 0 .281.008.394.022.113.014.207.034.279.057.072.023.123.05.15.078.027.03.031.06.01.089l-5.024 6.717a.356.356 0 0 1-.148.096c-.073.03-.169.06-.28.085a4.179 4.179 0 0 1-.829.085l-22.565-.004c-.156 0-.294-.009-.41-.023a1.388 1.388 0 0 1-.278-.062c-.071-.026-.12-.055-.143-.086-.023-.03-.021-.063.007-.095l5.922-6.715a.417.417 0 0 1 .152-.089c.074-.028.17-.055.279-.079a4.268 4.268 0 0 1 .801-.078h21.685zM189.1 554.02c.15 0 .284.009.398.022.115.014.21.033.287.056.076.024.13.052.162.08.032.028.038.058.02.088l-4.074 6.72c-.02.03-.066.063-.135.094a1.41 1.41 0 0 1-.27.085 3.158 3.158 0 0 1-.371.063 4.395 4.395 0 0 1-.444.023l-22.565-.004c-.16 0-.3-.01-.42-.024a1.64 1.64 0 0 1-.292-.061.378.378 0 0 1-.155-.086c-.028-.03-.032-.063-.007-.095l4.974-6.717c.02-.03.07-.06.14-.09.07-.028.161-.054.268-.078a4.229 4.229 0 0 1 .802-.078l21.678.005zM219.21 554.02c.15 0 .286.008.405.022.119.013.22.034.3.057.082.023.141.05.18.078.037.03.052.06.037.09l-2.932 6.72c-.014.031-.055.064-.12.095-.067.03-.155.06-.261.085-.106.025-.23.046-.365.061a4.013 4.013 0 0 1-.442.024l-27.647-.005c-.159 0-.3-.009-.42-.024a1.648 1.648 0 0 1-.302-.06.451.451 0 0 1-.168-.086c-.032-.031-.039-.064-.02-.096l4.018-6.719c.018-.03.062-.06.128-.088a1.54 1.54 0 0 1 .257-.08 3.98 3.98 0 0 1 .79-.077l26.573.005zM377.16 554.04c.15 0 .293.008.424.021.129.014.247.034.348.057.099.024.184.052.244.08.061.028.103.058.115.088l3.073 6.732c.014.031 0 .063-.034.095a.52.52 0 0 1-.18.085c-.081.025-.185.046-.307.061a3.445 3.445 0 0 1-.42.024l-27.729-.005c-.16 0-.309-.009-.445-.023a2.733 2.733 0 0 1-.354-.062 1.16 1.16 0 0 1-.247-.085c-.06-.032-.097-.064-.106-.096l-1.98-6.729c-.01-.03.01-.06.051-.089.039-.028.104-.055.187-.078s.189-.044.309-.057a3.87 3.87 0 0 1 .412-.022l26.537.01zM403.43 554.04a4.052 4.052 0 0 1 .788.079c.106.024.197.051.264.08.066.028.11.058.128.088l4.07 6.733c.02.031.013.064-.02.095a.483.483 0 0 1-.17.086c-.081.026-.182.047-.304.062a3.49 3.49 0 0 1-.418.023l-22.41-.004c-.156 0-.304-.009-.442-.024a2.83 2.83 0 0 1-.369-.061 1.369 1.369 0 0 1-.263-.086c-.066-.03-.11-.063-.125-.095l-3.174-6.731c-.014-.03 0-.06.037-.089a.527.527 0 0 1 .175-.08c.08-.023.182-.042.3-.056.12-.014.256-.022.406-.022l21.545.005zM430.5 558.06c.152 0 .302.01.44.024.138.015.266.037.376.062.112.025.205.054.279.085.072.03.122.062.145.093l1.999 2.699c.023.031.02.064-.01.095a.38.38 0 0 1-.156.086 1.504 1.504 0 0 1-.29.061 3.262 3.262 0 0 1-.413.024l-21.37-.004c-.154 0-.304-.01-.442-.024a3.345 3.345 0 0 1-.376-.062 1.615 1.615 0 0 1-.27-.085c-.07-.032-.118-.064-.136-.096l-1.656-2.697c-.018-.031-.011-.063.021-.094.03-.03.085-.06.162-.085a1.58 1.58 0 0 1 .293-.06c.117-.016.253-.025.408-.025l21.02.01zM455.37 558.06c.158 0 .31.01.452.024.14.015.272.036.387.062.116.025.215.054.29.085.079.03.134.062.16.094l2.372 2.698a.076.076 0 0 1 .009.095c-.023.031-.074.06-.145.086a1.4 1.4 0 0 1-.286.061 3.32 3.32 0 0 1-.418.024l-21.376-.004c-.157 0-.309-.01-.45-.024a3.459 3.459 0 0 1-.383-.062 1.787 1.787 0 0 1-.28-.085.367.367 0 0 1-.15-.095l-2.026-2.698c-.023-.032-.02-.064.009-.094a.371.371 0 0 1 .152-.085c.071-.025.168-.047.283-.061.116-.016.251-.025.404-.025h21.02zM480.24 558.07c.152 0 .305.01.448.024.14.015.274.037.391.062.12.025.222.055.302.085.08.03.14.062.173.094l2.741 2.7c.032.031.04.063.018.095-.018.03-.06.06-.13.085-.067.026-.16.047-.274.062a3.183 3.183 0 0 1-.406.024l-21.4-.004a4.287 4.287 0 0 1-.843-.086 1.934 1.934 0 0 1-.295-.086.458.458 0 0 1-.162-.095l-2.397-2.698c-.028-.031-.028-.063-.01-.094a.31.31 0 0 1 .14-.085c.07-.026.163-.047.277-.061.113-.016.247-.025.402-.025l20.932.005zM346.77 554.03c.152 0 .295.009.424.022.129.014.244.033.344.057.096.024.174.05.233.079.057.029.092.058.1.089l1.916 6.728c.01.032-.009.065-.053.096a.62.62 0 0 1-.194.085 2.055 2.055 0 0 1-.323.062c-.124.014-.27.023-.428.023l-129.08-.02a3.52 3.52 0 0 1-.419-.024 1.952 1.952 0 0 1-.31-.061.556.556 0 0 1-.182-.086c-.037-.031-.05-.064-.037-.095l2.875-6.721c.013-.03.052-.06.113-.088.06-.029.142-.056.241-.08.101-.023.218-.043.347-.056.129-.014.272-.022.42-.022l124.01.01z"/><path style="fill:#515152;stroke:#484848;stroke-width:7.83339977;stroke-linecap:round;stroke-linejoin:round" d="M93.952 315.11a164.61 120.74 0 1 1-329.217-.831l164.607.831z" transform="matrix(-.50504 0 0 .51629 264.66 240.056)"/><rect style="stroke-linejoin:round;stroke:#484848;stroke-linecap:round;stroke-width:4;fill:#515152" rx="13.736" ry="14.093" height="62.85" width="22.854" y="323.48" x="167.55"/><rect style="stroke-linejoin:round;stroke:#484848;stroke-linecap:round;stroke-width:4;fill:#515152" rx="13.736" ry="14.093" height="62.85" width="22.854" y="324.68" x="403.75"/></g></svg>