<svg version="1.0" xmlns="http://www.w3.org/2000/svg" viewBox="0 0 793.2 336.5" xml:space="preserve"><path fill="#999" stroke="#999" stroke-width="18.408" stroke-linecap="round" stroke-linejoin="round" stroke-miterlimit="10" d="M424.3 231.6s1.1-9.9-5.6-35.4c-6.7-25.5 5.4-78.3 26.4-121.7 20.9-43.4-17.3-52.6-17.3-52.6-59.1-18.7-55.4 142.4-55.4 142.4s-2.8-3.2-9.2-29.8c-6.3-26.6-3.4-77.8-5.7-94.8-5.5-40.1-55.5-36.9-61 2.8-3.1 22.9 8.8 104.6 23.9 132.8 20.6 38.5-13.2 4.5 5.8 34.1 19 29.5 98.1 22.2 98.1 22.2z"/><path fill="#B3B3B3" stroke="#B3B3B3" stroke-width="18.408" stroke-linecap="round" stroke-linejoin="round" stroke-miterlimit="10" d="M439.4 202.6c-31 4.4-61 5.3-56.6-24.8 4.4-30.1 68.1-33.6 87.5 1.8 19.5 35.4-34.5 68.1-34.5 68.1s-.9 17.7-13.3 29.2-7.1 38.9-7.1 38.9l-83.1 11.5s8.8-28.3 6.2-35.4c-2.7-7.1-69.9-52.2-46.9-82.2 23-30.1 8.2-30.5 40.1-42.8"/><path fill="#B3B3B3" stroke="#B3B3B3" stroke-width="18.408" stroke-linecap="round" stroke-linejoin="round" stroke-miterlimit="10" d="M293.2 160.3s14-25.6 42.6 6.1c20.5 22.7 46 43.4 31.6 57.1-14.4 13.7-89.5-27-74.2-63.2z"/><path fill="#B3B3B3" stroke="#B3B3B3" stroke-width="18.408" stroke-linecap="round" stroke-linejoin="round" stroke-miterlimit="10" d="M279.3 197.9c8.3-11.5 21.1-6.9 33.6 4.8 17.7 16.4 36.4 34.3 25 45.1-11.4 10.8-81.7-17.9-58.6-49.9zM396.9 226.5s4.4-18.6 22.1-21.2"/><path fill="#FFF" stroke="#FFF" stroke-width="18.408" stroke-linecap="round" stroke-linejoin="round" stroke-miterlimit="10" d="M422.1 229.7s1.1-9.9-5.6-35.4c-6.7-25.5 5.4-78.3 26.4-121.7C463.7 29.2 425.5 20 425.5 20 366.4 1.3 370 162.4 370 162.4s-2.8-3.2-9.2-29.8c-6.3-26.6-3.4-77.8-5.7-94.8-5.5-40.1-55.5-36.9-61 2.8-3.1 22.9 8.8 104.6 23.9 132.8 20.6 38.5-13.2 4.5 5.8 34.1 19.1 29.5 98.3 22.2 98.3 22.2z"/><path fill="#FFF" stroke="#FFF" stroke-width="18.408" stroke-linecap="round" stroke-linejoin="round" stroke-miterlimit="10" d="M437.1 200.7c-31 4.4-61 5.3-56.6-24.8 4.4-30.1 68.1-33.6 87.5 1.8 19.5 35.4-34.5 68.1-34.5 68.1s-.9 17.7-13.3 29.2-7.1 38.9-7.1 38.9L330 325.4s8.8-28.3 6.2-35.4c-2.7-7.1-69.9-52.2-46.9-82.2 23-30.1 8.2-30.5 40.1-42.8"/><path fill="#FFF" stroke="#FFF" stroke-width="18.408" stroke-linecap="round" stroke-linejoin="round" stroke-miterlimit="10" d="M291 158.4s14-25.6 42.6 6.1c20.5 22.7 46 43.4 31.6 57.1-14.4 13.7-89.5-26.9-74.2-63.2z"/><path fill="#FFF" stroke="#FFF" stroke-width="18.408" stroke-linecap="round" stroke-linejoin="round" stroke-miterlimit="10" d="M277.1 196c8.3-11.5 21.1-6.9 33.6 4.8 17.7 16.4 36.4 34.3 25 45.1-11.4 10.9-81.7-17.9-58.6-49.9zM394.7 224.6s4.4-18.6 22.1-21.2"/><path fill="#FDD9BD" stroke="#4D4D4D" stroke-width="7.446" stroke-linecap="round" stroke-linejoin="round" stroke-miterlimit="10" d="M422.1 229.7s1.1-9.9-5.6-35.4c-6.7-25.5 5.4-78.3 26.4-121.7C463.7 29.2 425.5 20 425.5 20 366.4 1.3 370 162.4 370 162.4s-2.8-3.2-9.2-29.8c-6.3-26.6-3.4-77.8-5.7-94.8-5.5-40.1-55.5-36.9-61 2.8-3.1 22.9 8.8 104.6 23.9 132.8 20.6 38.5-13.2 4.5 5.8 34.1 19.1 29.5 98.3 22.2 98.3 22.2z"/><path fill="#FDD9BD" stroke="#4D4D4D" stroke-width="7.446" stroke-linecap="round" stroke-linejoin="round" stroke-miterlimit="10" d="M437.1 200.7c-31 4.4-61 5.3-56.6-24.8 4.4-30.1 68.1-33.6 87.5 1.8 19.5 35.4-34.5 68.1-34.5 68.1s-.9 17.7-13.3 29.2-7.1 38.9-7.1 38.9L330 325.4s8.8-28.3 6.2-35.4c-2.7-7.1-69.9-52.2-46.9-82.2 23-30.1 8.2-30.5 40.1-42.8"/><path fill="#FDD9BD" stroke="#4D4D4D" stroke-width="7.446" stroke-linecap="round" stroke-linejoin="round" stroke-miterlimit="10" d="M291 158.4s14-25.6 42.6 6.1c20.5 22.7 46 43.4 31.6 57.1-14.4 13.7-89.5-26.9-74.2-63.2z"/><path fill="#FDD9BD" stroke="#4D4D4D" stroke-width="7.446" stroke-linecap="round" stroke-linejoin="round" stroke-miterlimit="10" d="M277.1 196c8.3-11.5 21.1-6.9 33.6 4.8 17.7 16.4 36.4 34.3 25 45.1-11.4 10.9-81.7-17.9-58.6-49.9zM394.7 224.6s4.4-18.6 22.1-21.2"/><g fill="#999" stroke="#999" stroke-width="20.381" stroke-linecap="round" stroke-linejoin="round" stroke-miterlimit="10"><path d="M719 235.5s-18.1-40.3-20.6-61.5c-2.5-21.2 22.6-49.7 36.7-86.1 6-15.4 17.3-39.1-5.9-50.7-38-18.8-64.5 106-64.5 106s-1.9-2.9-4-25 6-62.8 6-76.7c.1-32.8-40.4-35.8-49.3-4.5-5.1 18-4.6 85 4.3 109.3 0 0-16.1-22.1-24.2-47.3-8.1-25.2-9.7-65.6-38.7-60.6 0 0-28.2 9.5-14.7 42.3 12.9 31.2 30.8 77.7 38 87.5 0 0-29.1-26.9-36.6-42-7.5-15-19.4-22.5-29.7-17.9-14.9 6.7-21.5 33.4 5 59.7 26.5 26.3 34.2 33.4 40.6 38.5"/><path d="M667 209.1s12.1-18.9 34.8-19.6c0 0 46.3-70.2 74.4-41.5 15.8 16.1.8 42.5-7.1 49-9.5 7.9-50.4 46.2-50.4 46.2s-8.3 21.8-21.5 32.4c-13.2 10.6-14 34.1-14 34.1l-83.7 5.6s10.8-27.6 8.7-34.8c-1.9-6.3-51-45.2-46.5-73.8"/></g><g fill="#FFF" stroke="#FFF" stroke-width="20.381" stroke-linecap="round" stroke-linejoin="round" stroke-miterlimit="10"><path d="M716.6 232.9s-18.1-40.3-20.6-61.5c-2.5-21.2 22.6-49.7 36.7-86.1 6-15.4 17.3-39.1-5.9-50.7-38-18.8-64.5 106-64.5 106s-1.9-2.9-4-25 6-62.8 6-76.7c0-32.8-40.5-35.9-49.3-4.6-5.1 18-4.6 85 4.3 109.3 0 0-16.1-22.1-24.2-47.3-8.1-25.2-9.7-65.6-38.7-60.6 0 0-28.2 9.5-14.7 42.3 12.9 31.2 30.8 77.7 38 87.5 0 0-29.1-26.9-36.6-42-7.5-15-19.4-22.5-29.7-17.9-14.9 6.7-21.5 33.4 5 59.7 26.5 26.3 34.2 33.4 40.6 38.5"/><path d="M664.5 206.5s12.1-18.9 34.8-19.6c0 0 46.3-70.2 74.4-41.5 15.8 16.1.8 42.5-7.1 49.1-9.5 7.9-50.4 46.2-50.4 46.2s-8.3 21.8-21.5 32.4c-13.2 10.6-14 34.1-14 34.1l-83.7 5.6s10.8-27.6 8.7-34.8c-1.9-6.3-51-45.2-46.5-73.8"/></g><g fill="#FDD9BD" stroke="#4D4D4D" stroke-width="7.446" stroke-linecap="round" stroke-linejoin="round" stroke-miterlimit="10"><path d="M716.6 232.9s-18.1-40.3-20.6-61.5c-2.5-21.2 22.6-49.7 36.7-86.1 6-15.4 17.3-39.1-5.9-50.7-38-18.8-64.5 106-64.5 106s-1.9-2.9-4-25 6-62.8 6-76.7c0-32.8-40.5-35.9-49.3-4.6-5.1 18-4.6 85 4.3 109.3 0 0-16.1-22.1-24.2-47.3-8.1-25.2-9.7-65.6-38.7-60.6 0 0-28.2 9.5-14.7 42.3 12.9 31.2 30.8 77.7 38 87.5 0 0-29.1-26.9-36.6-42-7.5-15-19.4-22.5-29.7-17.9-14.9 6.7-21.5 33.4 5 59.7 26.5 26.3 34.2 33.4 40.6 38.5"/><path d="M664.5 206.5s12.1-18.9 34.8-19.6c0 0 46.3-70.2 74.4-41.5 15.8 16.1.8 42.5-7.1 49.1-9.5 7.9-50.4 46.2-50.4 46.2s-8.3 21.8-21.5 32.4c-13.2 10.6-14 34.1-14 34.1l-83.7 5.6s10.8-27.6 8.7-34.8c-1.9-6.3-51-45.2-46.5-73.8"/></g><g fill="#999" stroke="#999" stroke-width="20.381" stroke-linecap="round" stroke-linejoin="round" stroke-miterlimit="10"><path d="M132.3 60.8s31.1-10.6 33.7 30.5c2 32.2 14.6 65.2-6.1 68.7-20.8 3.5-62.5-76.5-27.6-99.2z"/><path d="M187.4 165.5c-31 4.4-61 5.3-56.6-24.8 4.4-30.1 68.1-33.6 87.5 1.8 19.5 35.4-34.5 68.1-34.5 68.1s-.9 17.7-13.3 29.2-7.1 38.9-7.1 38.9l-83.1 11.5s8.8-28.3 6.2-35.4c-2.6-7.1-69.9-52.2-46.9-82.2 23-30.1 30.9-39.8 62.8-52.2"/><path d="M83.6 75s30.1-13.3 36.3 27.4c4.9 31.9 20.3 63.7 0 69-20.4 5.3-69-70.7-36.3-96.4z"/><path d="M38.9 100.4s20.9-20.4 39 18.2c13 27.6 31.4 54.9 13.6 63.8-17.8 9-77.8-51.8-52.6-82z"/><path d="M18.2 138.9s21.9-8 30.8 14.4c8.8 22.5 24.8 43.4 10.7 50.4-14 7-61.4-41-41.5-64.8zM145 189.4s4.4-18.6 22.1-21.2"/></g><g fill="#FFF" stroke="#FFF" stroke-width="20.381" stroke-linecap="round" stroke-linejoin="round" stroke-miterlimit="10"><path d="M129.1 57.8s31.1-10.6 33.7 30.5c2 32.2 14.6 65.2-6.1 68.7s-62.5-76.5-27.6-99.2z"/><path d="M184.2 162.5c-31 4.4-61 5.3-56.6-24.8 4.4-30.1 68.1-33.6 87.5 1.8 19.5 35.4-34.5 68.1-34.5 68.1s-.9 17.7-13.3 29.2-7.1 38.9-7.1 38.9l-83.1 11.5s8.8-28.3 6.2-35.4c-2.7-7.1-69.9-52.2-46.9-82.2 23-30.1 30.9-39.8 62.8-52.2"/><path d="M80.4 72s30.1-13.3 36.3 27.4c4.9 31.9 20.3 63.7 0 69-20.3 5.3-69-70.7-36.3-96.4z"/><path d="M35.8 97.4s20.9-20.4 39 18.2c13 27.7 31.4 54.9 13.6 63.8-17.9 9-77.9-51.8-52.6-82z"/><path d="M15 135.9s21.9-8.1 30.8 14.4c8.8 22.5 24.8 43.4 10.7 50.4-14 7.1-61.4-41-41.5-64.8zM141.8 186.4s4.4-18.6 22.1-21.2"/></g><path fill="#FDD9BD" stroke="#4D4D4D" stroke-width="7.446" stroke-linecap="round" stroke-linejoin="round" stroke-miterlimit="10" d="M129.1 57.8s31.1-10.6 33.7 30.5c2 32.2 14.6 65.2-6.1 68.7s-62.5-76.5-27.6-99.2z"/><path fill="#FDD9BD" stroke="#4D4D4D" stroke-width="7.446" stroke-linecap="round" stroke-linejoin="round" stroke-miterlimit="10" d="M184.2 162.5c-31 4.4-61 5.3-56.6-24.8 4.4-30.1 68.1-33.6 87.5 1.8 19.5 35.4-34.5 68.1-34.5 68.1s-.9 17.7-13.3 29.2-7.1 38.9-7.1 38.9l-83.1 11.5s8.8-28.3 6.2-35.4c-2.7-7.1-69.9-52.2-46.9-82.2 23-30.1 30.9-39.8 62.8-52.2"/><path fill="#FDD9BD" stroke="#4D4D4D" stroke-width="7.446" stroke-linecap="round" stroke-linejoin="round" stroke-miterlimit="10" d="M80.4 72s30.1-13.3 36.3 27.4c4.9 31.9 20.3 63.7 0 69-20.3 5.3-69-70.7-36.3-96.4z"/><path fill="#FDD9BD" stroke="#4D4D4D" stroke-width="7.446" stroke-linecap="round" stroke-linejoin="round" stroke-miterlimit="10" d="M35.8 97.4s20.9-20.4 39 18.2c13 27.7 31.4 54.9 13.6 63.8-17.9 9-77.9-51.8-52.6-82z"/><path fill="#FDD9BD" stroke="#4D4D4D" stroke-width="7.446" stroke-linecap="round" stroke-linejoin="round" stroke-miterlimit="10" d="M15 135.9s21.9-8.1 30.8 14.4c8.8 22.5 24.8 43.4 10.7 50.4-14 7.1-61.4-41-41.5-64.8zM141.8 186.4s4.4-18.6 22.1-21.2"/></svg>